<svg id="Layer_1" data-name="Layer 1" xmlns="http://www.w3.org/2000/svg" viewBox="0 0 300 300">
  <path d="M217.48,210c-2.11,9.12-3.27,18.61-6.51,27.31-11,29.54-38,45.47-67.58,39.73-29.33-5.69-51-22.84-64.18-49.17C68.7,206.93,71.81,186,86.15,167.4c12.9-16.73,32.52-21.6,50.5-13.39,20.89,9.53,32.39,29.81,28.56,50.37-1.59,8.51-2.79,9.32-10.24,5.37-4.76-2.52-8.73-1.95-12.33,1.58-4,4-5.14,8.89-3,14.1,2,4.83,6.5,5.2,11,4.95,13.09-.72,24.79-12.42,27.25-26.23,4.32-24.3-14.18-48.31-30.66-56.64-11.53-5.83-23.47-7.36-36-3.93C80.8,151.87,62.43,185,70,217.92c8.28,36,44.82,64.76,82.54,66.38,50.45,2.16,86.27-52,77.78-94.64-4.81-24.2-18.32-42.7-37.09-57.85-13.94-11.24-28.15-22.14-41.94-33.56-11.06-9.16-19.73-20.29-25-33.83C122.21,53.79,121,43,125.71,32.29c3.78-8.59,10.91-12.21,20.09-10.62,15.26,2.66,25.2,13.67,26.1,29,.23,3.93-.2,7.93.42,11.79.69,4.39,1.51,9,3.54,12.88,2.9,5.51,8.91,5.27,12.27,0a14.75,14.75,0,0,0,.63-15.2c-3.57-7.23-7.61-14.23-11-21.54-5.3-11.52-14.12-18.51-26.07-22.18-12.4-3.81-25.36.22-33,10.68C106.62,43.62,105.16,70,117.25,87.8c6.85,10.08,15.92,18.92,25.06,27.12,17.86,16,36.9,30.71,54.63,46.87C210.73,174.36,216,191.2,217.48,210Z" style="fill: #f4a038"/>
</svg>
