<svg id="Layer_1" data-name="Layer 1" xmlns="http://www.w3.org/2000/svg" viewBox="0 0 300 300">
  <polygon points="150.26 135.38 103.84 100.38 150.26 31.74 196.68 100.38 150.26 135.38" style="fill: #456fff"/>
  <path d="M209.86,236.78a.87.87,0,0,1-.75-.44l-17.05-29.63a.87.87,0,0,1,.32-1.19.88.88,0,0,1,1.19.32l17.05,29.64a.89.89,0,0,1-.32,1.19A1,1,0,0,1,209.86,236.78Z" style="fill: #456fff"/>
  <path d="M177.42,180.38a.87.87,0,0,1-.76-.43l-16.37-28.47a.87.87,0,1,1,1.51-.87l16.37,28.47a.87.87,0,0,1-.32,1.19A.84.84,0,0,1,177.42,180.38Z" style="fill: #456fff"/>
  <path d="M202.11,161.4a.85.85,0,0,1-.73-.4l-17.6-27.62a.87.87,0,0,1,.26-1.2.89.89,0,0,1,1.21.27l17.6,27.61a.88.88,0,0,1-.27,1.21A.9.9,0,0,1,202.11,161.4Z" style="fill: #456fff"/>
  <path d="M178.28,218.05a.86.86,0,0,1-.77-.47l-14-27.56a.87.87,0,0,1,1.55-.79l14,27.56a.87.87,0,0,1-.38,1.17A.93.93,0,0,1,178.28,218.05Z" style="fill: #456fff"/>
  <path d="M204.87,198.1a.89.89,0,0,1-.76-.44L188.6,170.77a.87.87,0,0,1,1.51-.87l15.52,26.89a.88.88,0,0,1-.76,1.31Z" style="fill: #456fff"/>
  <path d="M179.39,260.73a.86.86,0,0,1-.8-.54L164.79,227a.87.87,0,0,1,.47-1.14.88.88,0,0,1,1.14.47l13.79,33.15a.86.86,0,0,1-.47,1.14A.78.78,0,0,1,179.39,260.73Z" style="fill: #456fff"/>
  <path d="M90.66,236.78a1,1,0,0,1-.43-.11.87.87,0,0,1-.32-1.19l17-29.64a.87.87,0,0,1,1.19-.32.89.89,0,0,1,.32,1.19l-17,29.63A.88.88,0,0,1,90.66,236.78Z" style="fill: #456fff"/>
  <path d="M123.11,180.38a.86.86,0,0,1-.76-1.3l16.37-28.47a.87.87,0,1,1,1.51.87L123.86,180A.87.87,0,0,1,123.11,180.38Z" style="fill: #456fff"/>
  <path d="M63.29,215.27a.92.92,0,0,1-.48-.14.87.87,0,0,1-.25-1.21l18.15-27.84a.88.88,0,0,1,1.21-.25.87.87,0,0,1,.25,1.2L64,214.87A.85.85,0,0,1,63.29,215.27Z" style="fill: #456fff"/>
  <path d="M98.41,161.4a.9.9,0,0,1-.47-.13.88.88,0,0,1-.26-1.21l17.59-27.61a.89.89,0,0,1,1.21-.27.87.87,0,0,1,.26,1.2L99.15,161A.88.88,0,0,1,98.41,161.4Z" style="fill: #456fff"/>
  <path d="M122.24,218.05a.93.93,0,0,1-.4-.09.87.87,0,0,1-.38-1.17l14-27.56A.87.87,0,1,1,137,190l-14,27.56A.86.86,0,0,1,122.24,218.05Z" style="fill: #456fff"/>
  <path d="M95.65,198.1a.82.82,0,0,1-.43-.12.87.87,0,0,1-.32-1.19l15.51-26.89a.87.87,0,0,1,1.51.87L96.41,197.66A.88.88,0,0,1,95.65,198.1Z" style="fill: #456fff"/>
  <path d="M71.56,180a.89.89,0,0,1-.45-.12.88.88,0,0,1-.29-1.2l16.25-26.75a.87.87,0,1,1,1.49.9L72.31,179.6A.88.88,0,0,1,71.56,180Z" style="fill: #456fff"/>
  <path d="M237.24,215.27a.86.86,0,0,1-.73-.4L218.36,187a.86.86,0,0,1,.25-1.2.87.87,0,0,1,1.2.25L238,213.92a.87.87,0,0,1-.25,1.21A.89.89,0,0,1,237.24,215.27Z" style="fill: #456fff"/>
  <path d="M229,180a.85.85,0,0,1-.74-.41L212,152.84a.87.87,0,1,1,1.49-.9l16.26,26.75a.88.88,0,0,1-.29,1.2A1,1,0,0,1,229,180Z" style="fill: #456fff"/>
  <path d="M121.13,260.73a.78.78,0,0,1-.33-.07.86.86,0,0,1-.47-1.14l13.79-33.15a.88.88,0,0,1,1.14-.47.87.87,0,0,1,.47,1.14l-13.8,33.15A.85.85,0,0,1,121.13,260.73Z" style="fill: #456fff"/>
  <path d="M150.26,283.62a.87.87,0,0,1-.87-.87V159.38a.87.87,0,0,1,1.74,0V282.75A.87.87,0,0,1,150.26,283.62Z" style="fill: #456fff"/>
  <path d="M150.26,240a1.74,1.74,0,0,1-1-.35l-92.29-69.2a1.75,1.75,0,0,1-.4-2.37L148.81,30.77a1.76,1.76,0,0,1,1.45-.77h0a1.76,1.76,0,0,1,1.45.77L243.9,168a1.75,1.75,0,0,1-.4,2.37l-92.2,69.2A1.72,1.72,0,0,1,150.26,240ZM60.34,168.61,150.26,236l89.83-67.43L150.26,34.86Z" style="fill: #456fff"/>
  <path d="M150.26,202.13a1.74,1.74,0,0,1-1.06-.36L74.42,144.35A1.74,1.74,0,0,1,74,142L148.81,30.77a1.76,1.76,0,0,1,1.45-.77h0a1.76,1.76,0,0,1,1.45.77L226.4,142a1.74,1.74,0,0,1-.38,2.35l-74.7,57.42A1.74,1.74,0,0,1,150.26,202.13ZM77.83,142.58l72.43,55.61,72.34-55.6L150.26,34.86Z" style="fill: #456fff"/>
  <path d="M150.26,160.68a1.33,1.33,0,0,1-.8-.27L93,116.8a1.31,1.31,0,0,1-.28-1.77l56.45-84a1.37,1.37,0,0,1,2.18,0l56.45,84a1.31,1.31,0,0,1-.28,1.77l-56.46,43.61A1.33,1.33,0,0,1,150.26,160.68Zm-54.69-45.2,54.69,42.25L205,115.48l-54.69-81.4Z" style="fill: #456fff"/>
  <path d="M150.26,284.49a1.7,1.7,0,0,1-1.07-.37L38.81,197.37a1.73,1.73,0,0,1-.37-2.34L148.82,30.77a1.81,1.81,0,0,1,2.89,0L262.08,195a1.73,1.73,0,0,1-.37,2.34L151.34,284.12A1.74,1.74,0,0,1,150.26,284.49Zm-108-88.86,108,84.9,108-84.9-108-160.77Z" style="fill: #456fff"/>
  <g>
    <path d="M176.72,89.52a26.44,26.44,0,0,1-11.3,21.67,111.93,111.93,0,0,0,20.25-4.69l8.64-6.52L173.58,69.33c-2.66-.55-5.34-1-8.06-1.39A26.38,26.38,0,0,1,176.72,89.52Z" style="fill: #fff"/>
    <path d="M123.81,89.52A26.4,26.4,0,0,1,135,67.94c-2.72.36-5.4.84-8.06,1.39L106.21,100l8.65,6.52a111.83,111.83,0,0,0,20.24,4.69A26.43,26.43,0,0,1,123.81,89.52Z" style="fill: #fff"/>
    <path d="M150.26,63.67c2.14,0,4.26.08,6.36.2a107.28,107.28,0,0,1,14.57,1.93l-3.65-5.41a151.22,151.22,0,0,0-34.55,0l-3.66,5.41a107.28,107.28,0,0,1,14.57-1.93C146,63.75,148.12,63.67,150.26,63.67Z" style="fill: #fff"/>
    <path d="M165.21,57l-15-22.11L135.31,57a136.69,136.69,0,0,1,29.9,0Z" style="fill: #fff"/>
    <path d="M170,118.35l10-7.57a108.59,108.59,0,0,1-21.58,3.91c-2.69.2-5.4.32-8.15.32s-5.46-.12-8.15-.32a108.59,108.59,0,0,1-21.58-3.91l10.05,7.57a150.23,150.23,0,0,0,19.68,1.3A150.39,150.39,0,0,0,170,118.35Z" style="fill: #fff"/>
    <path d="M150.26,122.54a142.31,142.31,0,0,1-15.26-.85l15.26,11.51,15.27-11.51A142.5,142.5,0,0,1,150.26,122.54Z" style="fill: #fff"/>
    <path d="M167.54,60.39,165.21,57a136.69,136.69,0,0,0-29.9,0L133,60.39a151.22,151.22,0,0,1,34.55,0Z" style="fill: #456fff"/>
    <path d="M165.53,121.69l4.42-3.34a150.39,150.39,0,0,1-19.69,1.3,150.23,150.23,0,0,1-19.68-1.3l4.42,3.34a142.31,142.31,0,0,0,15.26.85A142.5,142.5,0,0,0,165.53,121.69Z" style="fill: #456fff"/>
    <path d="M176.72,89.52a26.38,26.38,0,0,0-11.2-21.58c-2.2-.3-4.4-.58-6.65-.75a23.93,23.93,0,0,1,0,44.69q3.31-.25,6.59-.69A26.44,26.44,0,0,0,176.72,89.52Z" style="fill: #456fff"/>
    <path d="M126.3,89.52a23.94,23.94,0,0,1,15.35-22.33c-2.24.17-4.45.45-6.65.75a26.42,26.42,0,0,0,.1,43.25q3.27.44,6.59.69A24,24,0,0,1,126.3,89.52Z" style="fill: #456fff"/>
    <path d="M174.22,89.52a23.94,23.94,0,0,0-15.35-22.33c-2.84-.21-5.71-.35-8.61-.35s-5.77.14-8.61.35a23.93,23.93,0,0,0,0,44.69c2.83.21,5.69.33,8.57.33s5.74-.12,8.57-.33A24,24,0,0,0,174.22,89.52Zm-24,16.94A16.94,16.94,0,1,1,167.2,89.52,16.94,16.94,0,0,1,150.26,106.46Z" style="fill: #fff"/>
    <circle cx="150.26" cy="89.52" r="16.94" style="fill: #456fff"/>
    <path d="M141.65,67.19c2.84-.21,5.71-.35,8.61-.35s5.77.14,8.61.35c2.25.17,4.45.45,6.65.75,2.72.36,5.4.84,8.06,1.39l-2.39-3.53a107.28,107.28,0,0,0-14.57-1.93c-2.1-.12-4.22-.2-6.36-.2s-4.26.08-6.36.2a107.28,107.28,0,0,0-14.57,1.93l-2.39,3.53c2.66-.55,5.34-1,8.06-1.39C137.2,67.64,139.41,67.36,141.65,67.19Z" style="fill: #456fff"/>
    <path d="M150.26,115c2.75,0,5.46-.12,8.15-.32A108.59,108.59,0,0,0,180,110.78l5.68-4.28a111.93,111.93,0,0,1-20.25,4.69q-3.27.44-6.59.69c-2.83.21-5.68.33-8.57.33s-5.74-.12-8.57-.33q-3.31-.25-6.59-.69a111.83,111.83,0,0,1-20.24-4.69l5.67,4.28a108.59,108.59,0,0,0,21.58,3.91C144.8,114.89,147.52,115,150.26,115Z" style="fill: #456fff"/>
  </g>
</svg>
